PathFileType	4	(X/Y/Z)	C:\Users\Admin\Desktop\Capture Files\05302019 Reflex Trials\AcheillesTrialStatic_1-Unnamed.trc
DataRate	CameraRate	NumFrames	NumMarkers	Units	OrigDataRate	OrigDataStartFrame	OrigNumFrames
300.00	300.00	      15	0	mm	300.00	566	      1130
Frame#	Time	
		

566	1.883	111.77485	242.73505	383.11258	149.15959	203.68457	235.96831				99.43066	156.02005	304.06079	200.47510	-309.41245	928.02014	145.39156	355.50769	155.08424	-231.53290	209.85884	318.48816	-214.52182	-217.52570	665.92773	288.95349	-317.87811	1019.49841	72.77885	245.34846	246.25922	280.76788	-141.66110	964.41620	89.76193	133.51038	368.21323	124.67456	309.63086	207.64320							91.56425	245.37021	565.32788	113.47449	254.35229	320.46109	
567	1.887	111.78117	242.74199	383.11530	149.16066	203.67853	235.96669				99.43738	156.00833	304.07544	200.47723	-309.38013	928.01941	145.40216	355.50357	155.08322	-231.51015	209.84526	318.48703	-214.55109	-217.58614	665.93781	288.98331	-317.95999	1019.44977	72.79288	245.35876	246.27995	280.77261	-141.65007	964.41876	89.75037	133.50523	368.19879	124.69107	309.62891	207.64966							91.57511	245.38087	565.33197	113.48911	254.34990	320.46057	
568	1.890	111.78719	242.72717	383.11310	149.20149	203.70363	236.00363				99.42686	156.01047	304.06699	200.44482	-309.33606	928.03857	145.41602	355.49673	155.08594	-231.51672	209.85533	318.49649	-214.56853	-217.54271	665.95831	288.97342	-317.92831	1019.47406	72.76537	245.37259	246.28717	280.75916	-141.64932	964.41748	89.75166	133.52670	368.21713	124.69475	309.63730	207.65405							91.56595	245.38599	565.34351	113.48589	254.33980	320.46680	
569	1.893	111.79787	242.73880	383.13129	149.19572	203.69444	235.99266				99.45233	156.00482	304.08661	200.47168	-309.36703	928.03394	145.41254	355.51807	155.09908	-231.52769	209.86877	318.50967	-214.53792	-217.55009	665.91949	288.94336	-317.84808	1019.49323	72.79153	245.37535	246.28368	280.75214	-141.65826	964.42474	89.77264	133.51619	368.22989	124.69796	309.62399	207.65285							91.57976	245.37830	565.35242	113.48923	254.35002	320.46796	
570	1.897	111.80309	242.74930	383.12906	149.17607	203.69186	235.98550				99.43435	156.02902	304.08017	200.47365	-309.36929	928.04016	145.42456	355.51489	155.10574	-231.51421	209.87727	318.51154	-214.55685	-217.54457	665.92377	288.99384	-317.92749	1019.47791	72.81198	245.35265	246.27905	280.75571	-141.66319	964.41034	89.75387	133.52875	368.20865	124.71226	309.63132	207.66525							91.58010	245.36906	565.35400	113.49600	254.34143	320.46478	
571	1.900	111.79472	242.74091	383.13251	149.20474	203.69930	236.00516				99.45257	156.04314	304.08429	200.46303	-309.32870	928.04791	145.43161	355.52332	155.10805	-231.52116	209.87071	318.51074	-214.55547	-217.55334	665.92645	289.02786	-317.99820	1019.44159	72.81194	245.37476	246.28920	280.77383	-141.63408	964.40948	89.75164	133.53497	368.20642	124.71675	309.65128	207.66431							91.59024	245.37373	565.35596	113.50653	254.34917	320.47839	
572	1.903	111.80370	242.74512	383.14047	149.19070	203.69717	235.99634				99.41181	156.02898	304.08627	200.48180	-309.38913	928.03082	145.44118	355.52362	155.11574	-231.53331	209.87506	318.52417	-214.54807	-217.54988	665.90973	288.96146	-317.87390	1019.47058	72.81180	245.35938	246.29102	280.75818	-141.65833	964.39777	89.74924	133.53789	368.21848	124.72442	309.64774	207.66273							91.59949	245.38435	565.35724	113.51955	254.33952	320.48083	
573	1.907	111.81854	242.73808	383.14316	149.21371	203.69841	235.99583				99.43588	156.03085	304.08850	200.47845	-309.33017	928.03479	145.46024	355.52991	155.12184	-231.52747	209.88110	318.51904	-214.54373	-217.54976	665.92419	289.00375	-317.97845	1019.44690	72.82758	245.36037	246.28706	280.72614	-141.65529	964.40393	88.59411	134.78609	368.06403	124.73740	309.64444	207.66656							91.58988	245.36420	565.36835	113.51939	254.34023	320.48068	
574	1.910	111.81081	242.73720	383.14908	149.23439	203.70706	235.99344	89.75465	133.51566	368.21814	99.44310	156.03113	304.08286	200.48125	-309.35138	928.04529	145.45500	355.53152	155.12366	-231.51935	209.89592	318.51859	-214.56104	-217.55620	665.89807	289.02072	-318.01178	1019.45044	72.81258	245.36652	246.29616	280.74588	-141.65057	964.40472				124.73787	309.66531	207.67802							91.58018	245.37526	565.37158	113.52272	254.35356	320.48798	
575	1.913	111.82209	242.74826	383.13672	149.20694	203.69835	235.99937	89.76528	133.52678	368.23120	98.98423	156.60864	304.02200	200.49396	-309.36838	928.02173	145.44980	355.53229	155.12520	-231.52742	209.89781	318.52203	-214.54033	-217.56276	665.92230	289.04538	-318.01138	1019.44501	72.83451	245.37822	246.29259	280.73779	-141.64861	964.40143				124.75500	309.65314	207.68484							91.58524	245.38387	565.37347	113.51886	254.34718	320.48929	
576	1.917	111.81744	242.74345	383.14777	149.21844	203.72032	236.00259	89.78034	133.55328	368.22205				200.50174	-309.34006	928.03986	145.46094	355.53799	155.13495	-231.50998	209.90112	318.52426	-214.61565	-217.55760	665.90942	289.02155	-317.93460	1019.47900	72.82947	245.40277	246.29869	280.76019	-141.66435	964.40955	99.45403	156.03578	304.09958	124.74234	309.67105	207.69513							91.59523	245.36885	565.37006	113.54401	254.35217	320.49277	
577	1.920	111.80150	242.73985	383.14722	149.24884	203.73001	236.03325	89.78808	133.54474	368.23181				200.52809	-309.40686	928.00458	145.46317	355.53943	155.14198	-231.51561	209.90695	318.54129	-214.56819	-217.54691	665.90570	289.01892	-317.93353	1019.46533	72.84648	245.38293	246.29579	280.75958	-141.65816	964.42450	99.47034	156.03751	304.10483	124.75542	309.67892	207.69908							91.61178	245.37407	565.37390	113.52990	254.36229	320.50244	
578	1.923	111.82446	242.76537	383.14856	149.25032	203.71506	236.02129	89.82538	133.54922	368.25793				200.53769	-309.35953	928.01270	145.48610	355.55920	155.15369	-231.50069	209.90511	318.52521	-214.57762	-217.54320	665.87372	289.02292	-317.88974	1019.48059	72.84619	245.38916	246.31503	280.77942	-141.64142	964.41357	99.48727	156.04306	304.12747	124.74816	309.67969	207.70271							91.61319	245.38049	565.38123	113.52867	254.36723	320.50598	
579	1.927	111.83664	242.74821	383.14975	149.24774	203.73495	236.01492	89.80466	133.52882	368.24380				200.50484	-309.29584	928.03217	145.48317	355.56433	155.17137	-231.51297	209.90259	318.53348	-214.57751	-217.56700	665.92163	289.03528	-317.93060	1019.45184	72.85645	245.38100	246.29190	280.75098	-141.64601	964.41498	99.49569	156.04121	304.11588	124.75658	309.67410	207.70088							91.60567	245.37419	565.38385	113.53391	254.35777	320.50623	
580	1.930	111.82981	242.75862	383.15860	149.23911	203.74393	236.04156	89.81023	133.53568	368.24805				200.50858	-309.34598	928.01825	145.48943	355.55264	155.15411	-231.51285	209.91522	318.54837	-214.55969	-217.55611	665.90869	289.03448	-317.93243	1019.49750	72.85354	245.41379	246.31975	280.76266	-141.63593	964.40503	99.48919	156.03911	304.10391	124.75346	309.69592	207.70703							91.59516	245.37993	565.39258	113.53201	254.37289	320.51358	
